<svg height="512" viewBox="0 0 256 256" width="512" xmlns="http://www.w3.org/2000/svg"><path d="m86.3 17.7-80 18.1a4.2 4.2 0 0 0-3.3 4v203.4c0 2.7 2.5 4.7 5 4L86.4 230z" fill="#a4c9ff"/><path d="m86.3 17.7 83.4 18.8v211.9L86.3 230zM248 18.9l-78.3 17.6v211.9l80-17.7a4.2 4.2 0 0 0 3.3-4V22.8c0-2.7-2.5-4.6-5-4z" fill="#a4c9ff"/><path d="m86.3 17.7-80 18.1a4.2 4.2 0 0 0-3.3 4V122l13.5 8a7.4 7.4 0 0 0 8.7-1l6.6-6a7.4 7.4 0 0 1 11.7 2.5c3.2 6.9 3.7 7.5 3.7 9.5v8.6c0 4 3.3 7.4 7.4 7.4H58c4.1 0 7.5-3.3 7.5-7.4 0-40.3-.4-38.1.8-39.8 9.4-14 9.6-15.4 12.9-15.4h7.1l12.9-17.7a9 9 0 0 0 1.7-5.3V21zM223.4 188.8a6.2 6.2 0 0 0-7.8.4l-1.3 1.2a6.2 6.2 0 0 1-6.6 1l-13-5.5a6.2 6.2 0 0 1-3-8.9l2.5-4.2c1.1-1.9.9-2 .9-15.7 0-3.4-2.8-6.2-6.3-6.2h-19.1c-12.2-6-12.8-6.7-15.6-6l-7.9 1.8a6.2 6.2 0 0 0-4.6 4.7c-5.6 24.8-5.2 23.7-6.4 25.3l-10 12c-2 2.4-5.6 3-8.2 1.1l-7.7-5.2a6.2 6.2 0 0 0-8 .7l-7.7 7.7-7.3 21.3V230l83.4 18.4 64.2-13.2v-35.6c0-4-2.4-5-10.5-10.8zM248 18.9l-52 11.7v12.2c0 13.8 13.8 10.6 16.6 22.6l2.1 9.4c2 8.3-4 10-2.4 18.1l1.4 6.9a13.5 13.5 0 0 0 13.2 10.8H253V22.9c0-2.7-2.5-4.6-5-4z" fill="#6bdddd"/><path d="M86.3 25.7a2 2 0 0 1-2-2v-6a2 2 0 0 1 4 0v6a2 2 0 0 1-2 2zM86.3 214.2a2 2 0 0 1-2-2v-11.8a2 2 0 0 1 4 0v11.8a2 2 0 0 1-2 2zm0-23.6a2 2 0 0 1-2-2V177a2 2 0 0 1 4 0v11.7a2 2 0 0 1-2 2zm0-23.5a2 2 0 0 1-2-2v-11.8a2 2 0 0 1 4 0V165a2 2 0 0 1-2 2zm0-23.6a2 2 0 0 1-2-2v-11.8a2 2 0 0 1 4 0v11.8a2 2 0 0 1-2 2zm0-23.5a2 2 0 0 1-2-2v-11.8a2 2 0 0 1 4 0V118a2 2 0 0 1-2 2zm0-23.6a2 2 0 0 1-2-2V82.6a2 2 0 0 1 4 0v11.8a2 2 0 0 1-2 2zm0-23.6a2 2 0 0 1-2-2V59a2 2 0 0 1 4 0v11.8a2 2 0 0 1-2 2zm0-23.5a2 2 0 0 1-2-2V35.5a2 2 0 0 1 4 0v11.8a2 2 0 0 1-2 2zM86.3 232a2 2 0 0 1-2-2v-6a2 2 0 0 1 4 0v6a2 2 0 0 1-2 2zM169.7 44.6a2 2 0 0 1-2-2v-6a2 2 0 0 1 4 0v6a2 2 0 0 1-2 2zM169.7 233a2 2 0 0 1-2-2v-11.7a2 2 0 0 1 4 0V231a2 2 0 0 1-2 2zm0-23.5a2 2 0 0 1-2-2v-11.8a2 2 0 0 1 4 0v11.8a2 2 0 0 1-2 2zm0-23.6a2 2 0 0 1-2-2v-11.7a2 2 0 0 1 4 0v11.7a2 2 0 0 1-2 2zm0-23.5a2 2 0 0 1-2-2v-11.8a2 2 0 0 1 4 0v11.8a2 2 0 0 1-2 2zm0-23.6a2 2 0 0 1-2-2V125a2 2 0 0 1 4 0v11.8a2 2 0 0 1-2 2zm0-23.5a2 2 0 0 1-2-2v-11.8a2 2 0 0 1 4 0v11.8a2 2 0 0 1-2 2zm0-23.6a2 2 0 0 1-2-2V77.9a2 2 0 0 1 4 0v11.8a2 2 0 0 1-2 2zm0-23.6a2 2 0 0 1-2-2V54.4a2 2 0 0 1 4 0V66a2 2 0 0 1-2 2zM169.7 250.9a2 2 0 0 1-2-2v-6a2 2 0 0 1 4 0v6a2 2 0 0 1-2 2z" fill="#3762cc"/><path d="M169.7 250.4a2 2 0 0 1-.5 0L86.3 232 8.5 249.2a6.1 6.1 0 0 1-7.5-6V40c0-3 2-5.4 4.8-6l80-18.1h1l82.9 18.7 77.8-17.6a6.1 6.1 0 0 1 7.5 6v203.7c0 3-2 5.4-4.8 6L170 250.4a2 2 0 0 1-.4.1zM86.3 228h.5l82.9 18.3 79.6-17.6c1-.2 1.7-1 1.7-2V22.8a2.1 2.1 0 0 0-2.6-2.1L170 38.5a2 2 0 0 1-.9 0L86.3 19.8l-79.6 18c-1 .2-1.7 1-1.7 2v203.4a2.1 2.1 0 0 0 2.6 2.1L86 228h.4z" fill="#3762cc"/><path d="M58 152.9h-3.4a9.4 9.4 0 0 1-9.4-9.4v-8.6c0-1.2-.2-1.6-2.1-5.7l-1.4-3a5.4 5.4 0 0 0-3.9-3c-1.7-.4-3.4.1-4.7 1.3l-6.5 5.9a9.4 9.4 0 0 1-11 1.1L2 123.7a2 2 0 0 1-1-1.8V40c0-3 2-5.4 4.8-6l80-18.1h1l14.5 3.2a2 2 0 0 1 1.6 2v44.3a11 11 0 0 1-2.1 6.5L88 89.4a2 2 0 0 1-1.7.9h-7.1c-1.5 0-1.6 0-7 8-1.1 1.8-2.5 4-4.3 6.5l-.1.2-.1.2c-.3.7-.3 5.2-.3 17.4v20.9c0 5.2-4.2 9.4-9.4 9.4zM36.7 119a9.3 9.3 0 0 1 8.6 5.4l1.4 3c2 4.3 2.5 5.3 2.5 7.4v8.6c0 3 2.4 5.4 5.4 5.4H58c3 0 5.5-2.4 5.5-5.4v-21c-.1-18.2-.1-18.2 1-19.8l.1-.2 4.3-6.4c5.5-8.3 6.5-9.8 10.3-9.8h6.1l12.2-16.9a7 7 0 0 0 1.4-4.1V22.6l-12.6-2.8-79.6 18c-1 .2-1.7 1-1.7 2v81l12.5 7.3c2 1.2 4.6 1 6.4-.7l6.5-5.9c1.8-1.6 4-2.4 6.3-2.4zM169.7 250.4a2 2 0 0 1-.5 0L86 231.8a2 2 0 0 1-1.6-2v-15.6l.1-.6 7.3-21.3.5-.8 7.8-7.7a8.3 8.3 0 0 1 10.4-1l7.7 5.3c1.8 1.2 4.2.9 5.6-.8l10-12.1c.6-.7.6-.8 3.1-11.9l2.8-12.4c.7-3 3.1-5.5 6.2-6.2l7.9-1.9c3-.7 4.2 0 11.3 3.5l5.1 2.5h18.7c4.6 0 8.3 3.7 8.3 8.2v6.3c0 7.8 0 8.4-1.2 10.5l-2.5 4.1a4.2 4.2 0 0 0 2 6l13 5.6c1.6.7 3.3.4 4.5-.7l1.3-1.2a8.2 8.2 0 0 1 10.3-.5l3.5 2.5c5.6 3.9 7.9 5.5 7.9 9.9v35.6a2 2 0 0 1-1.6 2L170 250.3a2 2 0 0 1-.4 0zm-81.4-22 81.4 18 62.2-12.9v-34c0-2.1-.7-2.7-6.2-6.6l-3.5-2.4a4.2 4.2 0 0 0-5.3.2l-1.3 1.2a8.3 8.3 0 0 1-8.7 1.4l-13-5.5a8.2 8.2 0 0 1-4-11.8l2.6-4.2c.6-1 .6-1 .6-8.3V157c0-2.3-2-4.2-4.3-4.2h-19.1a824.2 824.2 0 0 1-6.5-3c-6.8-3.3-7-3.4-8.6-3l-8 1.8a4.3 4.3 0 0 0-3 3.2l-2.9 12.4c-2.7 12-2.7 12-4 13.5l-9.9 12.1a8.2 8.2 0 0 1-11 1.6l-7.7-5.2c-1.6-1.1-3.9-1-5.3.5l-7.5 7.3-7 20.5zM253 112.6h-26.1c-7.4 0-13.7-5.3-15.2-12.4l-1.4-6.9c-1-4.6.3-7.5 1.4-10 1-2.5 1.9-4.5 1-8l-2-9.5c-1.2-4.7-4.2-6.6-7.7-8.8-4.2-2.6-9-5.7-9-14.2V30.6a2 2 0 0 1 1.5-2l52-11.7a6.1 6.1 0 0 1 7.5 6v87.7a2 2 0 0 1-2 2zm-55-80.4v10.6c0 6.3 3.1 8.3 7.2 10.8 3.7 2.4 7.9 5 9.3 11.3l2.2 9.4c1 4.9-.2 7.9-1.3 10.5-1 2.3-1.9 4.3-1.2 7.7l1.4 6.9c1.1 5.3 5.8 9.2 11.3 9.2H251V22.9a2.1 2.1 0 0 0-2.6-2.1z" fill="#3762cc"/><path d="M163.6 42.8A35.6 35.6 0 1 0 96.3 59l28 54.9c1.6 3 5.8 3 7.4 0l28-55c2.5-4.8 4-10.3 4-16.2z" fill="#4671c6"/><g><path d="M128 118.2a6 6 0 0 1-5.5-3.3l-28-55a37.7 37.7 0 1 1 67 0l-28 55a6 6 0 0 1-5.5 3.3zm0-109a33.7 33.7 0 0 0-29.9 49l28 54.9c.4.7 1 1.1 1.9 1.1s1.5-.4 1.9-1.1l28-55a33.7 33.7 0 0 0-29.9-49z" fill="#3762cc"/></g><g><circle cx="128" cy="42.8" fill="#ffea92" r="27.4"/></g><g><path d="M118.2 34.1a17 17 0 0 0-10.5 7.6l.1.3 1.3.6c.2 0 .2.3 0 .4l-1.3.5v.3a17 17 0 0 0 10.4 7.7 23.2 23.2 0 0 0 0-17.4z" fill="#e0ebfc"/><path d="M148.3 37v-1.6h-1.7c-3 0-5.4 2.3-5.7 5.2-3-4.4-9.2-7.4-16.2-7.4a24 24 0 0 0-6.5.9 23.2 23.2 0 0 1 0 17.4c2 .5 4.2.8 6.5.8 7 0 13.2-3 16.2-7.3.3 2.9 2.7 5.2 5.7 5.2h1.7v-1.7c0-3.2-2.6-5.7-5.7-5.7 3.1 0 5.7-2.6 5.7-5.7z" fill="#a4c9ff"/><path d="M124.4 40a.9.9 0 0 0-1-.6l-3.6 1.1a24.2 24.2 0 0 1 0 4.5l3.5 1.2c.5.1 1-.2 1.1-.7.6-2.5.3-4.4 0-5.5z" fill="#e0ebfc"/><g><path d="M118.2 53.5a19 19 0 0 1-12.3-8.7 2.2 2.2 0 0 1 0-2v-.3c-.3-.5-.2-1.2 0-1.7a19 19 0 0 1 11.8-8.6c1-.3 2 .2 2.4 1.1a25 25 0 0 1 0 18.9 2 2 0 0 1-1.9 1.3zm-7.7-9c1.5 1.8 3.8 3.4 6.5 4.4a21.8 21.8 0 0 0 0-12.3c-2.7 1-5 2.6-6.5 4.5a2.2 2.2 0 0 1 0 3.3zm-1.9.9zm-.2-1zm1-1.7z" fill="#3762cc"/><path d="M124.6 54.3c-2.3 0-4.7-.3-7-1a2 2 0 0 1-1.2-2.6 21.4 21.4 0 0 0 0-15.9 2 2 0 0 1 1.3-2.6c8.1-2.3 17.1-.3 22.5 4.6 1.4-2 3.8-3.4 6.4-3.4h1.7a2 2 0 0 1 2 2V37c0 2.2-1 4.3-2.5 5.7a7.7 7.7 0 0 1 2.5 5.7v1.7a2 2 0 0 1-2 2h-1.7c-2.6 0-5-1.4-6.4-3.4a23.4 23.4 0 0 1-15.6 5.5zm-3.8-4.3c7.4 1.3 15-1.2 18.5-6.2a2 2 0 0 1 1.3-.8 2 2 0 0 1 0-.4 2 2 0 0 1-1.3-.9c-3.5-5-11.1-7.4-18.5-6.2a25.4 25.4 0 0 1 0 14.5zm22.1-5.2a3.7 3.7 0 0 0 3.4 3.4 3.7 3.7 0 0 0-3.4-3.4zm3.4-7.4a3.7 3.7 0 0 0-3.4 3.4 3.7 3.7 0 0 0 3.4-3.4z" fill="#3762cc"/><path d="m123.6 48.2-1-.1-3.4-1.1a2 2 0 0 1-1.4-2.1v-4.2a2 2 0 0 1 1.4-2.1l3.5-1.1a2.9 2.9 0 0 1 3.6 2c.4 1.4.8 3.7 0 6.5a2.9 2.9 0 0 1-2.7 2.2zm-1.7-4.6.8.3a9 9 0 0 0 0-2.2l-.8.2V43.6z" fill="#3762cc"/></g><g><path d="M114.6 43.1a1 1 0 0 1-1-1v-1.3a1 1 0 1 1 2 0v1.3c0 .6-.5 1-1 1z" fill="#3762cc"/></g></g><g><path d="M128 72.2a29.4 29.4 0 1 1 0-59 29.4 29.4 0 0 1 0 59zm0-54.8a25.4 25.4 0 1 0 0 50.8 25.4 25.4 0 0 0 0-50.8z" fill="#3762cc"/></g></svg>