<svg width="120.9" height="15.5" xmlns="http://www.w3.org/2000/svg"><path d="M43 5.1l-.4 4.3q-.1 1.8 1 1.8 1 0 1.5-.8a3.6 3.6 0 00.4-1l.1-.9a7 7 0 000-.4 12.8 12.8 0 000-.6q0-1.8-.5-3.1a4.5 4.5 0 00-.6-1 4 4 0 00-2.2-1.3q-.7-.2-1.7-.2A5.4 5.4 0 0039 2a4.8 4.8 0 00-1 .5q-1.3.8-2 2.3a7.9 7.9 0 00-.6 2 10.3 10.3 0 00-.2 1.4 11.2 11.2 0 000 .5l.1 1.4a6.7 6.7 0 00.4 1.4 5 5 0 00.7 1.3 4.2 4.2 0 001 1 4.5 4.5 0 001.7.6 6.1 6.1 0 001.1 0l1.4-.1 1.2-.5.3 1a3.1 3.1 0 01-.5.2l-.5.2a6.7 6.7 0 01-.3 0 6.8 6.8 0 01-1.6.2 7.3 7.3 0 01-1.7-.1 5.6 5.6 0 01-1.7-.7 5.3 5.3 0 01-2-2.2 6.5 6.5 0 010-.4 7.7 7.7 0 01-.6-1.9v-2a10 10 0 01.3-2.3 8.6 8.6 0 01.6-1.5 7 7 0 011.2-1.7 6.1 6.1 0 011.1-1 6.1 6.1 0 013.1-.9 7.3 7.3 0 01.3 0 7.2 7.2 0 011.6.2 5.5 5.5 0 011.7.7 5.2 5.2 0 012 2.2 6.4 6.4 0 010 .3 7.7 7.7 0 01.6 1.9v1.5a12.5 12.5 0 010 .5q0 1.4-.5 2.4a3.8 3.8 0 01-.4.6 2.7 2.7 0 01-2 1 3.4 3.4 0 01-.2 0 2.5 2.5 0 01-.8 0q-.8-.3-1.1-1.3a3.6 3.6 0 01-.4.6l-.5.4a2.3 2.3 0 01-.7.3 2 2 0 01-.5 0 2.1 2.1 0 01-.7 0q-.6-.3-1-.8a2.7 2.7 0 01-.3-.8q-.2-.8 0-1.8a7.6 7.6 0 01.1-1.3 6.1 6.1 0 01.4-1q.5-1 1.2-1.5a3 3 0 01.7-.4 2.3 2.3 0 01.9-.2l1.1.1.8.5a6.1 6.1 0 01.3.2zM1.4 0v4.6a3.1 3.1 0 011.2-1A3.3 3.3 0 014 3.4q2.6 0 2.7 2.8a6.5 6.5 0 010 .2V12H5.2V6.4a3.3 3.3 0 000-.5q-.1-.5-.4-.8-.3-.4-1-.5a3 3 0 00-.3 0 2.2 2.2 0 00-.7.1 2 2 0 00-.5.3q-.6.4-.9 1v6H0V0h1.4zM72 4.5v-1h1.4v8.3a4.5 4.5 0 01-.1 1 3 3 0 01-.9 1.6 3.3 3.3 0 01-1.6.8 4.7 4.7 0 01-1 .1q-.9 0-1.8-.4a3.6 3.6 0 01-.7-.4 2.8 2.8 0 01-.6-.6l.7-.9q1 1.1 2.3 1.1a3 3 0 00.7 0q.5-.1.8-.4a1.8 1.8 0 00.2-.1 2 2 0 00.4-1l.1-.6a3.8 3.8 0 000-.1v-.7q-.8 1-2.3 1a3 3 0 01-1.4-.3q-.5-.3-1-.9a4.1 4.1 0 01-.7-1.4q-.2-.6-.2-1.3a8.4 8.4 0 010-.6q0-2 .9-3.1a2.9 2.9 0 012-1.2 3.7 3.7 0 01.4 0q1.5 0 2.4 1zM55.7 7.7V8a6.9 6.9 0 01-.1 1.3l-.5 1.3a3.8 3.8 0 01-.3.5q-.9 1.2-2.4 1.2a3.9 3.9 0 01-1-.2 2.8 2.8 0 01-1.4-.8v4h-1.5V3.6H50v1a2.9 2.9 0 012-1 4.1 4.1 0 01.5-.1 3.3 3.3 0 011.1.2 2.8 2.8 0 011.3 1 3.9 3.9 0 01.6 1.2l.3 1.2a8.4 8.4 0 010 .7zm9 0V8a6.9 6.9 0 01-.2 1.3q0 .7-.4 1.3a3.8 3.8 0 01-.3.5q-.9 1.2-2.4 1.2a3.9 3.9 0 01-1-.2 2.8 2.8 0 01-1.4-.8v4h-1.5V3.6h1.3l.1 1a2.9 2.9 0 012-1 4.1 4.1 0 01.5-.1 3.3 3.3 0 011.1.2 2.8 2.8 0 011.3 1 3.9 3.9 0 01.6 1.2l.2 1.2a8.4 8.4 0 010 .7zm35.9 0V8a6.9 6.9 0 01-.1 1.3l-.5 1.3a3.8 3.8 0 01-.3.5q-.9 1.2-2.4 1.2a3.9 3.9 0 01-1-.2 2.8 2.8 0 01-1.4-.8v4h-1.5V3.6h1.3l.1 1a2.9 2.9 0 012-1 4.1 4.1 0 01.5-.1 3.3 3.3 0 011.1.2 2.8 2.8 0 011.3 1 3.9 3.9 0 01.6 1.2l.2 1.2a8.4 8.4 0 010 .7zM8.4 8v-.3a5.6 5.6 0 01.2-1.2 4.6 4.6 0 01.3-1 3.9 3.9 0 01.8-1.1 3.6 3.6 0 01.6-.5 3.4 3.4 0 011.8-.5 4 4 0 011.1.1 3 3 0 011.5 1 3.5 3.5 0 01.7 1.2l.2 1.1a7.8 7.8 0 010 .8v.6H10a3.8 3.8 0 00.1.9 2.7 2.7 0 00.6 1.1 2.3 2.3 0 001.7.8 3 3 0 00.1 0 3.1 3.1 0 00.6 0l.7-.3q.5-.3 1-.9l.8.7a3.4 3.4 0 01-2.5 1.6 4.9 4.9 0 01-.7 0A4.3 4.3 0 0111 12a3.5 3.5 0 01-1.5-1 3.8 3.8 0 01-1-1.9 5.5 5.5 0 010-1zm76.2 0v-.3a5.6 5.6 0 01.1-1.2 4.6 4.6 0 01.4-1 3.9 3.9 0 01.8-1.1 3.6 3.6 0 01.5-.5 3.4 3.4 0 011.9-.5 4 4 0 011 .1 3 3 0 011.5 1 3.5 3.5 0 01.7 1.2q.2.5.2 1.1a7.8 7.8 0 010 .8v.6H86a3.8 3.8 0 00.2.9 2.7 2.7 0 00.6 1.1 2.3 2.3 0 001.6.8 3 3 0 00.1 0 3.1 3.1 0 00.6 0l.7-.3q.6-.3 1-.9l.8.7a3.4 3.4 0 01-2.4 1.6 4.9 4.9 0 01-.7 0A4.3 4.3 0 0187 12a3.5 3.5 0 01-1.4-1 3.8 3.8 0 01-1-1.9 5.5 5.5 0 01-.1-1zm33.3-6.5h1.4v2h1.6v1.2h-1.6v5.2a2 2 0 000 .3q0 .3.2.5a.6.6 0 00.3.1l.4.1a1.9 1.9 0 00.2 0h.4a7.2 7.2 0 00.1 0V12a4.4 4.4 0 01-.8.1 3.8 3.8 0 01-.3 0 2.5 2.5 0 01-.6 0q-.5-.1-.9-.5a2 2 0 01-.3-.7l-.1-1V4.7h-1.6V3.5h1.6v-2zM18.9 0v12h-1.5V0H19zm3.8 0v12h-1.4V0h1.4zm2 7.8v-.1q0-1.2.5-2.2a3.8 3.8 0 01.7-1 3.5 3.5 0 01.6-.6 3.6 3.6 0 011.7-.5 4.4 4.4 0 01.3 0 4 4 0 011.3.2 3.4 3.4 0 011.5 1 4 4 0 011 1.8 6 6 0 010 1.4 5.5 5.5 0 010 1.3 4.6 4.6 0 01-.4 1 3.7 3.7 0 01-1 1.2 3.6 3.6 0 01-.4.3 3.6 3.6 0 01-1.6.5 4.5 4.5 0 01-.4 0 4 4 0 01-1.3-.2 3.4 3.4 0 01-1.5-1 4 4 0 01-.9-1.8 6 6 0 01-.1-1.3zm77.3 0v-.1q0-1.2.5-2.2a3.8 3.8 0 01.7-1 3.5 3.5 0 01.7-.6 3.6 3.6 0 011.6-.5 4.4 4.4 0 01.4 0 4 4 0 011.3.2 3.4 3.4 0 011.5 1 4 4 0 01.9 1.8 6 6 0 01.1 1.4 5.5 5.5 0 01-.1 1.3 4.6 4.6 0 01-.4 1 3.7 3.7 0 01-.9 1.2 3.6 3.6 0 01-.4.3 3.6 3.6 0 01-1.6.5 4.5 4.5 0 01-.4 0 4 4 0 01-1.4-.2 3.4 3.4 0 01-1.4-1 4 4 0 01-1-1.8 6 6 0 010-1.3zM83.8 3.5v1.3a4 4 0 00-.5 0 5 5 0 00-.2 0q-1.4 0-2 1.1a2.6 2.6 0 000 .1v6h-1.4V3.5H81v1q.7-1.1 2-1.1a2.6 2.6 0 01.3 0h.3a.7.7 0 010 .1zm31.8 0v1.3a4 4 0 00-.4 0 5 5 0 00-.3 0q-1.4 0-1.9 1.1a2.6 2.6 0 000 .1v6h-1.5V3.5h1.4v1q.8-1.1 2-1.1a2.6 2.6 0 01.3 0h.4a.7.7 0 010 .1zm-89 6.3a2.7 2.7 0 00.2.3 2 2 0 001.5.9 2.6 2.6 0 00.2 0 2.3 2.3 0 00.9-.2q.5-.2.9-.7.5-.7.6-1.8a6.5 6.5 0 000-.6q0-1.2-.5-2a2.8 2.8 0 00-.1-.3 2.2 2.2 0 00-.8-.6q-.4-.2-1-.2a2.2 2.2 0 00-1 .2q-.4.2-.7.6-.5.7-.6 1.8a6.5 6.5 0 000 .7q0 1.1.4 1.9zm77.3 0a2.7 2.7 0 00.2.3 2 2 0 001.5.9 2.6 2.6 0 00.3 0 2.3 2.3 0 00.8-.2q.5-.2.9-.7.5-.7.6-1.8a6.5 6.5 0 000-.6q0-1.2-.4-2a2.8 2.8 0 00-.2-.3 2.2 2.2 0 00-.7-.6l-1-.2a2.2 2.2 0 00-1 .2l-.8.6q-.5.7-.6 1.8a6.5 6.5 0 000 .7q0 1.1.4 1.9zm-54-4v4a2.4 2.4 0 00.7.7q.5.4 1.1.5a2.9 2.9 0 00.3 0 2.1 2.1 0 00.8-.2q.5-.2.8-.6a2.7 2.7 0 00.4-.8l.2-.8a7 7 0 000-.9q0-1-.3-1.8a2.7 2.7 0 00-.3-.5 2 2 0 00-1.4-.8 2.5 2.5 0 00-.2 0q-1.2 0-1.9 1a2.9 2.9 0 00-.1.2zm9 0v4a2.4 2.4 0 00.7.7q.4.4 1.1.5a2.9 2.9 0 00.3 0 2.1 2.1 0 00.8-.2l.8-.6a2.7 2.7 0 00.4-.8l.2-.8a7 7 0 000-.9q0-1-.3-1.8a2.7 2.7 0 00-.3-.5 2 2 0 00-1.4-.8 2.5 2.5 0 00-.3 0q-1.1 0-1.8 1a2.9 2.9 0 00-.1.2zm36 0v4a2.4 2.4 0 00.6.7q.4.4 1.1.5a2.9 2.9 0 00.3 0 2.1 2.1 0 00.8-.2l.8-.6a2.7 2.7 0 00.4-.8l.2-.8a7 7 0 000-.9q0-1-.3-1.8a2.7 2.7 0 00-.3-.5 2 2 0 00-1.4-.8 2.5 2.5 0 00-.3 0q-1.1 0-1.8 1a2.9 2.9 0 00-.1.2zm-23 3.9V5.8a2.6 2.6 0 00-.6-.7q-.5-.4-1.3-.5a2.8 2.8 0 00-.1 0q-1.1 0-1.7.8-.4.6-.5 1.6a7 7 0 000 .9 5.7 5.7 0 000 .8q0 .5.2.9a2.7 2.7 0 00.3.5 1.9 1.9 0 001.3.8 2.5 2.5 0 00.3 0q1.4 0 2-1.2zm-30.4-.2l.3-4a2 2 0 00-.9-.2 1.6 1.6 0 00-1.2.5 2.6 2.6 0 00-.3.4q-.5.7-.7 1.8a8.9 8.9 0 000 .7v1.5a1.7 1.7 0 00.2.2q.2.6.8.6a1.5 1.5 0 00.2 0 1.2 1.2 0 00.5-.1l.3-.2.7-1a4.4 4.4 0 000-.2zM9.9 7h4.3v-.1a4 4 0 00-.1-.7l-.3-.7a2 2 0 00-.2-.3 1.7 1.7 0 00-1.2-.6 2.5 2.5 0 00-.3 0 2 2 0 00-.9.2 2 2 0 00-.5.4q-.5.6-.7 1.5a4.9 4.9 0 000 .3zm76.2 0h4.2v-.1a4 4 0 000-.7l-.3-.7a2 2 0 00-.3-.3 1.7 1.7 0 00-1.1-.6 2.5 2.5 0 00-.3 0 2 2 0 00-1 .2 2 2 0 00-.5.4q-.5.6-.7 1.5a4.9 4.9 0 000 .3zm-10.6 4.2l.2-.6a.7.7 0 01.4-.2h.2a1.5 1.5 0 01.1 0 1.3 1.3 0 01.3 0l.2.1a.7.7 0 01.2.1.9.9 0 01.2.5 1.1 1.1 0 010 .1 1 1 0 010 .4.8.8 0 01-.2.2.7.7 0 01-.4.2h-.2a1.5 1.5 0 01-.1 0 1.3 1.3 0 01-.3 0H76a.7.7 0 01-.2-.2.8.8 0 01-.2-.5z" vector-effect="non-scaling-stroke" stroke-linecap="round" fill-rule="evenodd" font-size="12" stroke-width=".9" fill="currentColor"/></svg>