<svg width="120.914" height="15.539" viewBox="0 0 120.914 15.539" xmlns="http://www.w3.org/2000/svg"><g id="svgGroup" stroke-linecap="round" fill-rule="evenodd" font-size="9pt" stroke="none" stroke-width="0.25mm" fill="currentColor" style="stroke:none;stroke-width:0.25mm;fill:currentColor"><path d="M 43.039 5.102 L 42.633 9.43 Q 42.487 11.206 43.597 11.234 A 1.423 1.423 0 0 0 43.633 11.234 Q 44.516 11.234 45.063 10.359 A 3.551 3.551 0 0 0 45.465 9.425 Q 45.579 9.013 45.627 8.531 A 6.986 6.986 0 0 0 45.656 8.078 A 12.779 12.779 0 0 0 45.671 7.536 Q 45.683 5.66 45.101 4.385 A 4.452 4.452 0 0 0 44.527 3.445 A 4.063 4.063 0 0 0 42.344 2.057 Q 41.578 1.852 40.641 1.852 A 5.406 5.406 0 0 0 38.942 2.111 A 4.82 4.82 0 0 0 37.852 2.629 Q 36.633 3.406 35.93 4.875 A 7.887 7.887 0 0 0 35.297 6.861 A 10.285 10.285 0 0 0 35.141 8.266 A 11.24 11.24 0 0 0 35.127 8.809 Q 35.127 9.558 35.233 10.224 A 6.67 6.67 0 0 0 35.609 11.629 A 4.967 4.967 0 0 0 36.319 12.887 A 4.189 4.189 0 0 0 37.324 13.809 A 4.547 4.547 0 0 0 39.044 14.473 A 6.125 6.125 0 0 0 40.109 14.563 Q 40.813 14.563 41.52 14.391 Q 42.227 14.219 42.695 13.945 L 42.984 14.844 A 3.133 3.133 0 0 1 42.548 15.069 Q 42.319 15.167 42.044 15.25 A 6.669 6.669 0 0 1 41.699 15.344 A 6.817 6.817 0 0 1 40.078 15.539 A 7.277 7.277 0 0 1 38.42 15.359 A 5.579 5.579 0 0 1 36.719 14.66 A 5.264 5.264 0 0 1 34.763 12.457 A 6.52 6.52 0 0 1 34.613 12.129 A 7.65 7.65 0 0 1 34.098 10.246 Q 33.963 9.319 34.008 8.266 A 10.094 10.094 0 0 1 34.387 5.882 A 8.569 8.569 0 0 1 34.969 4.402 A 6.976 6.976 0 0 1 36.178 2.681 A 6.13 6.13 0 0 1 37.32 1.754 A 6.114 6.114 0 0 1 40.44 0.824 A 7.329 7.329 0 0 1 40.672 0.82 A 7.229 7.229 0 0 1 42.314 0.998 A 5.494 5.494 0 0 1 44.008 1.695 A 5.158 5.158 0 0 1 45.921 3.867 A 6.419 6.419 0 0 1 46.078 4.219 A 7.747 7.747 0 0 1 46.573 6.065 Q 46.675 6.771 46.675 7.55 A 12.458 12.458 0 0 1 46.664 8.078 Q 46.594 9.501 46.098 10.473 A 3.756 3.756 0 0 1 45.727 11.063 A 2.672 2.672 0 0 1 43.792 12.141 A 3.416 3.416 0 0 1 43.469 12.156 A 2.453 2.453 0 0 1 42.739 12.055 Q 41.893 11.792 41.594 10.844 A 3.643 3.643 0 0 1 41.205 11.356 Q 40.947 11.637 40.653 11.818 A 2.269 2.269 0 0 1 40.629 11.832 A 2.304 2.304 0 0 1 39.981 12.101 A 2.033 2.033 0 0 1 39.508 12.156 A 2.143 2.143 0 0 1 38.753 12.029 Q 38.185 11.817 37.828 11.25 A 2.74 2.74 0 0 1 37.496 10.451 Q 37.315 9.728 37.406 8.742 A 7.632 7.632 0 0 1 37.641 7.415 A 6.11 6.11 0 0 1 37.996 6.441 Q 38.469 5.43 39.215 4.852 A 2.944 2.944 0 0 1 39.882 4.456 A 2.313 2.313 0 0 1 40.781 4.273 Q 41.414 4.273 41.914 4.441 Q 42.277 4.563 42.707 4.857 A 6.099 6.099 0 0 1 43.039 5.102 Z M 1.445 0 L 1.445 4.57 A 3.142 3.142 0 0 1 2.629 3.65 A 3.257 3.257 0 0 1 3.945 3.391 Q 6.543 3.391 6.645 6.232 A 6.519 6.519 0 0 1 6.648 6.414 L 6.648 12 L 5.203 12 L 5.203 6.406 A 3.265 3.265 0 0 0 5.164 5.909 Q 5.074 5.363 4.785 5.055 Q 4.454 4.702 3.826 4.634 A 2.95 2.95 0 0 0 3.508 4.617 A 2.227 2.227 0 0 0 2.771 4.736 A 1.997 1.997 0 0 0 2.273 4.992 Q 1.742 5.367 1.445 5.977 L 1.445 12 L 0 12 L 0 0 L 1.445 0 Z M 71.906 4.484 L 71.977 3.547 L 73.297 3.547 L 73.297 11.797 A 4.463 4.463 0 0 1 73.171 12.886 A 3.09 3.09 0 0 1 72.324 14.383 A 3.26 3.26 0 0 1 70.671 15.236 A 4.749 4.749 0 0 1 69.711 15.328 Q 68.797 15.328 67.922 14.938 A 3.561 3.561 0 0 1 67.193 14.508 A 2.778 2.778 0 0 1 66.586 13.867 L 67.336 13 Q 68.266 14.148 69.609 14.148 A 3.013 3.013 0 0 0 70.28 14.078 Q 70.757 13.969 71.102 13.692 A 1.844 1.844 0 0 0 71.254 13.555 A 1.937 1.937 0 0 0 71.746 12.679 Q 71.83 12.371 71.842 12.004 A 3.793 3.793 0 0 0 71.844 11.883 L 71.844 11.156 Q 70.977 12.156 69.477 12.156 A 2.973 2.973 0 0 1 68.134 11.857 Q 67.561 11.573 67.118 11.016 A 3.804 3.804 0 0 1 67.074 10.961 A 4.117 4.117 0 0 1 66.393 9.574 Q 66.23 9.008 66.179 8.336 A 8.389 8.389 0 0 1 66.156 7.703 Q 66.156 5.727 67.07 4.559 A 2.892 2.892 0 0 1 69.169 3.405 A 3.659 3.659 0 0 1 69.492 3.391 Q 71.039 3.391 71.906 4.484 Z M 55.688 7.734 L 55.688 7.867 A 6.876 6.876 0 0 1 55.573 9.157 Q 55.428 9.918 55.098 10.521 A 3.84 3.84 0 0 1 54.805 10.977 Q 53.922 12.156 52.414 12.156 A 3.903 3.903 0 0 1 51.372 12.025 A 2.84 2.84 0 0 1 49.992 11.18 L 49.992 15.25 L 48.547 15.25 L 48.547 3.547 L 49.867 3.547 L 49.938 4.484 A 2.877 2.877 0 0 1 51.963 3.412 A 4.123 4.123 0 0 1 52.391 3.391 A 3.251 3.251 0 0 1 53.523 3.58 A 2.838 2.838 0 0 1 54.801 4.539 A 3.892 3.892 0 0 1 55.437 5.813 Q 55.601 6.36 55.658 7.017 A 8.38 8.38 0 0 1 55.687 7.734 Z M 64.664 7.734 L 64.664 7.867 A 6.876 6.876 0 0 1 64.55 9.157 Q 64.405 9.918 64.074 10.521 A 3.84 3.84 0 0 1 63.781 10.977 Q 62.898 12.156 61.391 12.156 A 3.903 3.903 0 0 1 60.349 12.025 A 2.84 2.84 0 0 1 58.969 11.18 L 58.969 15.25 L 57.523 15.25 L 57.523 3.547 L 58.844 3.547 L 58.914 4.484 A 2.877 2.877 0 0 1 60.939 3.412 A 4.123 4.123 0 0 1 61.367 3.391 A 3.251 3.251 0 0 1 62.5 3.58 A 2.838 2.838 0 0 1 63.777 4.539 A 3.892 3.892 0 0 1 64.414 5.813 Q 64.578 6.36 64.634 7.017 A 8.38 8.38 0 0 1 64.664 7.734 Z M 100.57 7.734 L 100.57 7.867 A 6.876 6.876 0 0 1 100.456 9.157 Q 100.311 9.918 99.981 10.521 A 3.84 3.84 0 0 1 99.688 10.977 Q 98.805 12.156 97.297 12.156 A 3.903 3.903 0 0 1 96.255 12.025 A 2.84 2.84 0 0 1 94.875 11.18 L 94.875 15.25 L 93.43 15.25 L 93.43 3.547 L 94.75 3.547 L 94.82 4.484 A 2.877 2.877 0 0 1 96.845 3.412 A 4.123 4.123 0 0 1 97.273 3.391 A 3.251 3.251 0 0 1 98.406 3.58 A 2.838 2.838 0 0 1 99.684 4.539 A 3.892 3.892 0 0 1 100.32 5.813 Q 100.484 6.36 100.541 7.017 A 8.38 8.38 0 0 1 100.57 7.734 Z M 8.445 8.008 L 8.445 7.742 A 5.635 5.635 0 0 1 8.581 6.482 A 4.589 4.589 0 0 1 8.926 5.496 A 3.895 3.895 0 0 1 9.721 4.384 A 3.615 3.615 0 0 1 10.27 3.949 A 3.378 3.378 0 0 1 12.141 3.391 A 4.008 4.008 0 0 1 13.231 3.531 A 2.914 2.914 0 0 1 14.703 4.477 A 3.546 3.546 0 0 1 15.359 5.701 Q 15.524 6.22 15.584 6.847 A 7.846 7.846 0 0 1 15.617 7.586 L 15.617 8.188 L 9.891 8.188 A 3.754 3.754 0 0 0 10.017 9.091 A 2.695 2.695 0 0 0 10.621 10.207 A 2.279 2.279 0 0 0 12.282 10.974 A 2.937 2.937 0 0 0 12.398 10.977 A 3.135 3.135 0 0 0 12.982 10.925 Q 13.353 10.855 13.653 10.688 A 1.967 1.967 0 0 0 13.695 10.664 Q 14.227 10.352 14.625 9.836 L 15.508 10.523 A 3.424 3.424 0 0 1 13.019 12.108 A 4.887 4.887 0 0 1 12.32 12.156 A 4.257 4.257 0 0 1 10.985 11.956 A 3.51 3.51 0 0 1 9.523 11.027 A 3.796 3.796 0 0 1 8.556 9.141 A 5.516 5.516 0 0 1 8.445 8.008 Z M 84.586 8.008 L 84.586 7.742 A 5.635 5.635 0 0 1 84.722 6.482 A 4.589 4.589 0 0 1 85.066 5.496 A 3.895 3.895 0 0 1 85.862 4.384 A 3.615 3.615 0 0 1 86.41 3.949 A 3.378 3.378 0 0 1 88.281 3.391 A 4.008 4.008 0 0 1 89.371 3.531 A 2.914 2.914 0 0 1 90.844 4.477 A 3.546 3.546 0 0 1 91.5 5.701 Q 91.665 6.22 91.724 6.847 A 7.846 7.846 0 0 1 91.758 7.586 L 91.758 8.188 L 86.031 8.188 A 3.754 3.754 0 0 0 86.158 9.091 A 2.695 2.695 0 0 0 86.762 10.207 A 2.279 2.279 0 0 0 88.422 10.974 A 2.937 2.937 0 0 0 88.539 10.977 A 3.135 3.135 0 0 0 89.122 10.925 Q 89.494 10.855 89.794 10.688 A 1.967 1.967 0 0 0 89.836 10.664 Q 90.367 10.352 90.766 9.836 L 91.648 10.523 A 3.424 3.424 0 0 1 89.16 12.108 A 4.887 4.887 0 0 1 88.461 12.156 A 4.257 4.257 0 0 1 87.125 11.956 A 3.51 3.51 0 0 1 85.664 11.027 A 3.796 3.796 0 0 1 84.697 9.141 A 5.516 5.516 0 0 1 84.586 8.008 Z M 117.852 1.5 L 119.297 1.5 L 119.297 3.547 L 120.875 3.547 L 120.875 4.664 L 119.297 4.664 L 119.297 9.906 A 1.953 1.953 0 0 0 119.315 10.185 Q 119.359 10.489 119.508 10.668 A 0.624 0.624 0 0 0 119.765 10.848 Q 119.953 10.922 120.227 10.922 A 1.859 1.859 0 0 0 120.4 10.913 Q 120.583 10.896 120.831 10.845 A 7.15 7.15 0 0 0 120.914 10.828 L 120.914 12 A 4.379 4.379 0 0 1 120.145 12.141 A 3.835 3.835 0 0 1 119.805 12.156 A 2.544 2.544 0 0 1 119.227 12.095 Q 118.676 11.966 118.344 11.57 A 1.928 1.928 0 0 1 117.984 10.894 Q 117.852 10.466 117.852 9.906 L 117.852 4.664 L 116.313 4.664 L 116.313 3.547 L 117.852 3.547 L 117.852 1.5 Z M 18.859 0 L 18.859 12 L 17.414 12 L 17.414 0 L 18.859 0 Z M 22.742 0 L 22.742 12 L 21.297 12 L 21.297 0 L 22.742 0 Z M 24.672 7.797 L 24.672 7.695 Q 24.672 6.453 25.16 5.461 A 3.84 3.84 0 0 1 25.897 4.42 A 3.479 3.479 0 0 1 26.52 3.93 A 3.62 3.62 0 0 1 28.198 3.401 A 4.428 4.428 0 0 1 28.508 3.391 A 4.048 4.048 0 0 1 29.847 3.603 A 3.443 3.443 0 0 1 31.301 4.586 A 4.07 4.07 0 0 1 32.223 6.415 A 5.996 5.996 0 0 1 32.367 7.766 L 32.367 7.867 A 5.535 5.535 0 0 1 32.226 9.141 A 4.582 4.582 0 0 1 31.895 10.082 A 3.656 3.656 0 0 1 30.957 11.309 A 3.557 3.557 0 0 1 30.543 11.609 A 3.636 3.636 0 0 1 28.908 12.14 A 4.496 4.496 0 0 1 28.523 12.156 A 4.021 4.021 0 0 1 27.189 11.944 A 3.445 3.445 0 0 1 25.738 10.961 A 4.084 4.084 0 0 1 24.804 9.086 A 5.969 5.969 0 0 1 24.672 7.797 Z M 102.023 7.797 L 102.023 7.695 Q 102.023 6.453 102.512 5.461 A 3.84 3.84 0 0 1 103.249 4.42 A 3.479 3.479 0 0 1 103.871 3.93 A 3.62 3.62 0 0 1 105.55 3.401 A 4.428 4.428 0 0 1 105.859 3.391 A 4.048 4.048 0 0 1 107.199 3.603 A 3.443 3.443 0 0 1 108.652 4.586 A 4.07 4.07 0 0 1 109.575 6.415 A 5.996 5.996 0 0 1 109.719 7.766 L 109.719 7.867 A 5.535 5.535 0 0 1 109.577 9.141 A 4.582 4.582 0 0 1 109.246 10.082 A 3.656 3.656 0 0 1 108.309 11.309 A 3.557 3.557 0 0 1 107.895 11.609 A 3.636 3.636 0 0 1 106.259 12.14 A 4.496 4.496 0 0 1 105.875 12.156 A 4.021 4.021 0 0 1 104.541 11.944 A 3.445 3.445 0 0 1 103.09 10.961 A 4.084 4.084 0 0 1 102.155 9.086 A 5.969 5.969 0 0 1 102.023 7.797 Z M 83.773 3.5 L 83.773 4.844 A 4.001 4.001 0 0 0 83.342 4.797 A 4.946 4.946 0 0 0 83.063 4.789 Q 81.68 4.789 81.161 5.934 A 2.568 2.568 0 0 0 81.133 6 L 81.133 12 L 79.688 12 L 79.688 3.547 L 81.094 3.547 L 81.117 4.523 Q 81.828 3.391 83.133 3.391 A 2.641 2.641 0 0 1 83.354 3.399 Q 83.583 3.419 83.732 3.481 A 0.683 0.683 0 0 1 83.773 3.5 Z M 115.617 3.5 L 115.617 4.844 A 4.001 4.001 0 0 0 115.186 4.797 A 4.946 4.946 0 0 0 114.906 4.789 Q 113.523 4.789 113.005 5.934 A 2.568 2.568 0 0 0 112.977 6 L 112.977 12 L 111.531 12 L 111.531 3.547 L 112.938 3.547 L 112.961 4.523 Q 113.672 3.391 114.977 3.391 A 2.641 2.641 0 0 1 115.198 3.399 Q 115.427 3.419 115.576 3.481 A 0.683 0.683 0 0 1 115.617 3.5 Z M 26.561 9.795 A 2.746 2.746 0 0 0 26.777 10.125 A 2.063 2.063 0 0 0 28.273 10.965 A 2.625 2.625 0 0 0 28.523 10.977 A 2.256 2.256 0 0 0 29.394 10.814 Q 29.89 10.609 30.25 10.144 A 2.62 2.62 0 0 0 30.273 10.113 Q 30.788 9.428 30.894 8.306 A 6.497 6.497 0 0 0 30.922 7.695 Q 30.922 6.496 30.431 5.689 A 2.82 2.82 0 0 0 30.262 5.441 A 2.188 2.188 0 0 0 29.524 4.809 Q 29.095 4.589 28.561 4.579 A 2.731 2.731 0 0 0 28.508 4.578 A 2.167 2.167 0 0 0 27.571 4.776 Q 27.121 4.989 26.781 5.43 Q 26.275 6.086 26.159 7.18 A 6.535 6.535 0 0 0 26.125 7.867 Q 26.125 9.017 26.561 9.795 Z M 103.912 9.795 A 2.746 2.746 0 0 0 104.129 10.125 A 2.063 2.063 0 0 0 105.625 10.965 A 2.625 2.625 0 0 0 105.875 10.977 A 2.256 2.256 0 0 0 106.745 10.814 Q 107.242 10.609 107.602 10.144 A 2.62 2.62 0 0 0 107.625 10.113 Q 108.14 9.428 108.246 8.306 A 6.497 6.497 0 0 0 108.273 7.695 Q 108.273 6.496 107.782 5.689 A 2.82 2.82 0 0 0 107.613 5.441 A 2.188 2.188 0 0 0 106.875 4.809 Q 106.447 4.589 105.912 4.579 A 2.731 2.731 0 0 0 105.859 4.578 A 2.167 2.167 0 0 0 104.923 4.776 Q 104.472 4.989 104.133 5.43 Q 103.627 6.086 103.511 7.18 A 6.535 6.535 0 0 0 103.477 7.867 Q 103.477 9.017 103.912 9.795 Z M 49.992 5.781 L 49.992 9.82 A 2.367 2.367 0 0 0 50.575 10.525 Q 51.053 10.906 51.722 10.966 A 2.869 2.869 0 0 0 51.977 10.977 A 2.105 2.105 0 0 0 52.804 10.819 Q 53.261 10.625 53.596 10.195 A 2.494 2.494 0 0 0 53.629 10.152 A 2.668 2.668 0 0 0 54.014 9.386 Q 54.135 9.018 54.192 8.566 A 6.951 6.951 0 0 0 54.242 7.703 Q 54.242 6.659 53.917 5.936 A 2.672 2.672 0 0 0 53.633 5.445 A 1.931 1.931 0 0 0 52.235 4.632 A 2.513 2.513 0 0 0 51.961 4.617 Q 50.787 4.617 50.138 5.549 A 2.885 2.885 0 0 0 49.992 5.781 Z M 58.969 5.781 L 58.969 9.82 A 2.367 2.367 0 0 0 59.552 10.525 Q 60.03 10.906 60.699 10.966 A 2.869 2.869 0 0 0 60.953 10.977 A 2.105 2.105 0 0 0 61.781 10.819 Q 62.238 10.625 62.573 10.195 A 2.494 2.494 0 0 0 62.605 10.152 A 2.668 2.668 0 0 0 62.991 9.386 Q 63.112 9.018 63.169 8.566 A 6.951 6.951 0 0 0 63.219 7.703 Q 63.219 6.659 62.894 5.936 A 2.672 2.672 0 0 0 62.609 5.445 A 1.931 1.931 0 0 0 61.212 4.632 A 2.513 2.513 0 0 0 60.938 4.617 Q 59.763 4.617 59.114 5.549 A 2.885 2.885 0 0 0 58.969 5.781 Z M 94.875 5.781 L 94.875 9.82 A 2.367 2.367 0 0 0 95.458 10.525 Q 95.936 10.906 96.605 10.966 A 2.869 2.869 0 0 0 96.859 10.977 A 2.105 2.105 0 0 0 97.687 10.819 Q 98.144 10.625 98.479 10.195 A 2.494 2.494 0 0 0 98.512 10.152 A 2.668 2.668 0 0 0 98.897 9.386 Q 99.018 9.018 99.075 8.566 A 6.951 6.951 0 0 0 99.125 7.703 Q 99.125 6.659 98.8 5.936 A 2.672 2.672 0 0 0 98.516 5.445 A 1.931 1.931 0 0 0 97.118 4.632 A 2.513 2.513 0 0 0 96.844 4.617 Q 95.67 4.617 95.021 5.549 A 2.885 2.885 0 0 0 94.875 5.781 Z M 71.844 9.688 L 71.844 5.828 A 2.559 2.559 0 0 0 71.309 5.139 Q 70.769 4.658 69.986 4.62 A 2.806 2.806 0 0 0 69.852 4.617 Q 68.799 4.617 68.206 5.434 A 2.467 2.467 0 0 0 68.203 5.438 Q 67.781 6.021 67.659 7.003 A 7.031 7.031 0 0 0 67.609 7.867 A 5.651 5.651 0 0 0 67.672 8.739 Q 67.745 9.204 67.901 9.58 A 2.656 2.656 0 0 0 68.195 10.113 A 1.865 1.865 0 0 0 69.549 10.914 A 2.491 2.491 0 0 0 69.836 10.93 Q 71.203 10.93 71.844 9.688 Z M 41.477 9.5 L 41.484 9.43 L 41.844 5.5 A 2.009 2.009 0 0 0 40.906 5.273 A 1.61 1.61 0 0 0 39.713 5.796 A 2.601 2.601 0 0 0 39.395 6.203 Q 38.941 6.909 38.746 8.005 A 8.879 8.879 0 0 0 38.648 8.742 Q 38.561 9.632 38.747 10.189 A 1.657 1.657 0 0 0 38.855 10.445 Q 39.135 10.969 39.703 11.031 A 1.452 1.452 0 0 0 39.859 11.039 A 1.159 1.159 0 0 0 40.425 10.887 Q 40.585 10.799 40.741 10.659 A 2.153 2.153 0 0 0 40.762 10.641 Q 41.134 10.299 41.394 9.704 A 4.437 4.437 0 0 0 41.477 9.5 Z M 9.938 7 L 14.172 7 L 14.172 6.891 A 3.972 3.972 0 0 0 14.077 6.206 Q 13.988 5.828 13.822 5.531 A 2.009 2.009 0 0 0 13.578 5.184 A 1.748 1.748 0 0 0 12.415 4.593 A 2.47 2.47 0 0 0 12.141 4.578 A 1.966 1.966 0 0 0 11.212 4.797 A 2.027 2.027 0 0 0 10.672 5.215 Q 10.15 5.774 9.978 6.729 A 4.872 4.872 0 0 0 9.937 7 Z M 86.078 7 L 90.313 7 L 90.313 6.891 A 3.972 3.972 0 0 0 90.218 6.206 Q 90.129 5.828 89.963 5.531 A 2.009 2.009 0 0 0 89.719 5.184 A 1.748 1.748 0 0 0 88.555 4.593 A 2.47 2.47 0 0 0 88.281 4.578 A 1.966 1.966 0 0 0 87.352 4.797 A 2.027 2.027 0 0 0 86.812 5.215 Q 86.291 5.774 86.119 6.729 A 4.872 4.872 0 0 0 86.078 7 Z M 75.508 11.242 Q 75.508 10.867 75.73 10.617 A 0.705 0.705 0 0 1 76.062 10.412 Q 76.178 10.377 76.318 10.369 A 1.481 1.481 0 0 1 76.398 10.367 A 1.266 1.266 0 0 1 76.662 10.393 Q 76.825 10.428 76.949 10.51 A 0.695 0.695 0 0 1 77.074 10.617 A 0.864 0.864 0 0 1 77.301 11.145 A 1.144 1.144 0 0 1 77.305 11.242 A 0.924 0.924 0 0 1 77.254 11.553 A 0.811 0.811 0 0 1 77.074 11.844 A 0.735 0.735 0 0 1 76.747 12.04 Q 76.632 12.074 76.493 12.083 A 1.514 1.514 0 0 1 76.398 12.086 A 1.301 1.301 0 0 1 76.142 12.062 Q 75.993 12.032 75.879 11.964 A 0.661 0.661 0 0 1 75.73 11.844 A 0.838 0.838 0 0 1 75.51 11.319 A 1.101 1.101 0 0 1 75.508 11.242 Z" vector-effect="non-scaling-stroke"/></g></svg>