<?xml version="1.0" standalone="no"?>
<!DOCTYPE svg PUBLIC "-//W3C//DTD SVG 20010904//EN"
 "http://www.w3.org/TR/2001/REC-SVG-20010904/DTD/svg10.dtd">
<svg version="1.0" xmlns="http://www.w3.org/2000/svg"
 width="469.000000pt" height="469.000000pt" viewBox="0 0 469.000000 469.000000"
 preserveAspectRatio="xMidYMid meet">
<metadata>
Created by potrace 1.14, written by Peter Selinger 2001-2017
</metadata>
<g transform="translate(0.000000,469.000000) scale(0.100000,-0.100000)"
fill="#000000" stroke="none">
<path d="M520 3833 c-281 -50 -444 -206 -506 -484 -3 -13 -7 -64 -9 -112 -5
-130 29 -257 101 -381 162 -277 446 -444 839 -493 116 -15 595 -7 690 11 11 2
43 7 70 10 28 4 61 9 75 11 14 2 41 6 60 9 56 8 223 44 307 65 92 23 307 65
393 77 19 3 98 7 175 9 142 4 252 -7 380 -40 33 -8 69 -17 79 -20 156 -37 490
-183 644 -281 29 -19 55 -34 57 -34 9 0 181 -124 240 -173 134 -112 277 -275
350 -401 15 -26 42 -56 58 -66 65 -40 157 8 157 83 0 107 -286 450 -522 626
-262 194 -580 355 -878 443 -106 31 -163 46 -204 52 -21 4 -41 8 -45 10 -18
11 -154 21 -286 20 -156 0 -224 -6 -337 -30 -37 -7 -82 -16 -100 -19 -38 -7
-196 -42 -348 -78 -112 -26 -271 -54 -367 -63 -32 -3 -71 -7 -88 -10 -16 -3
-127 -7 -245 -9 -188 -4 -261 0 -369 20 -319 58 -546 222 -647 470 -24 59 -28
84 -28 160 0 193 82 324 241 386 92 35 324 33 431 -5 78 -28 128 -59 178 -112
61 -65 98 -79 145 -56 19 10 42 32 52 50 29 49 16 91 -47 159 -122 132 -316
201 -565 201 -58 0 -117 -2 -131 -5z"/>
<path d="M2398 3405 c-72 -41 -72 -152 0 -189 17 -8 82 -16 182 -20 85 -3 182
-9 215 -12 61 -6 333 -49 370 -57 11 -3 49 -12 85 -21 171 -40 424 -132 575
-209 259 -132 503 -311 645 -473 25 -29 56 -57 70 -63 85 -38 181 61 139 142
-36 68 -217 243 -369 356 -335 248 -798 440 -1224 507 -21 3 -48 7 -59 10
-109 21 -232 32 -437 39 -138 5 -169 3 -192 -10z"/>
<path d="M2168 2135 c-2 -2 -37 -6 -78 -9 -114 -9 -230 -23 -315 -40 -11 -2
-40 -7 -65 -11 -25 -4 -92 -21 -150 -37 -482 -133 -735 -387 -706 -707 24
-278 216 -458 496 -467 113 -4 192 16 310 77 83 43 215 138 243 174 39 53 23
131 -33 160 -53 27 -103 16 -150 -35 -33 -36 -129 -101 -195 -132 -178 -83
-388 -14 -441 144 -26 78 -26 173 -2 237 30 80 128 173 243 232 120 61 319
125 450 144 22 4 47 8 55 10 17 5 147 21 255 31 157 16 601 9 705 -11 131 -25
198 -42 270 -67 260 -92 455 -246 555 -436 36 -68 89 -93 149 -68 34 14 66 58
66 92 0 25 -59 131 -116 209 -188 256 -547 448 -922 491 -31 3 -66 9 -77 12
-21 5 -542 12 -547 7z"/>
</g>
</svg>
