<svg
  xmlns="http://www.w3.org/2000/svg"
  viewBox="0 -0.03 45.7 45.73"
>
  <path
    fill="currentColor"
    d="m36.038 16.922 7.873-7.303c1.104-1.018 1.737-2.434 1.768-3.935.029-1.5-.562-2.94-1.623-4.002l-.058-.059C42.936.562 41.496-.028 39.996.001c-1.502.03-2.921.667-3.938 1.77l-7.302 7.873L4.57 1.321c-1.459-.504-2.893-.122-3.346.887L.142 4.631C-.31 5.642.363 6.967 1.71 7.719l18.991 10.612-8.547 9.216-4.842-1.046c-.527-.114-1.059.169-1.259.671l-.725 1.826c-.2.501.005 1.062.467 1.34l5.239 3.146 1.188 1.188 3.146 5.24c.278.461.844.659 1.346.461l1.821-.723c.503-.199.785-.729.672-1.255l-1.057-4.883 9.198-8.531L37.96 43.972c.753 1.348 2.077 2.021 3.089 1.568l2.421-1.082c1.011-.452 1.395-1.888.891-3.347l-8.323-24.189z"
  />
</svg>