<svg xmlns="http://www.w3.org/2000/svg" xml:space="preserve" style="enable-background:new 0 0 403.963 403.963" viewBox="0 105.52 404.27 193.12"><path d="M400 160c-32-15-64-28-90-52-6-5-12-2-13 5-2 15-2 30-2 45-30-9-70-3-98-6-60-4-120-17-180-16-5 0-9 7-6 12 16 24 36 43 55 64-20 25-44 46-64 72-4 5-2 13 6 14 103 8 194-65 293-82v55c0 6 8 10 13 6 33-34 63-68 90-106 1-4-1-9-4-11zM24 283c17-21 35-41 48-63 4 0 8-4 6-8-14-21-31-39-47-60 48 1 95 9 143 14 44 5 89 8 133 9 6 0 8-7 4-10l-2-2c0-12 0-24 2-36 22 18 48 30 74 42-21 30-45 57-70 84-1-16-2-31-1-46 0-4-3-6-7-6-1-2-3-3-6-2-96 11-180 82-277 84z" fill="currentColor"/></svg>