<svg height="512" viewBox="0 0 256 256" width="512" xmlns="http://www.w3.org/2000/svg"><path d="M128 238.3H25.6c-16.6 0-27-18-18.7-32.4l51.2-88.7 51.2-88.7a21.6 21.6 0 0 1 37.4 0l51.2 88.7 51.2 88.7c8.3 14.4-2.1 32.4-18.7 32.4z" fill="#fcc24c"/><path d="M249 205.9 198 117.2l-51.2-88.7a21.5 21.5 0 0 0-23.2-10.3c5.7 1.2 11 4.6 14.2 10.3l51.2 88.7 51.2 88.7c8.3 14.4-2.1 32.4-18.7 32.4h9c16.6 0 27-18 18.7-32.4z" fill="#dea42e"/><path d="M7 205.9 58 117.2l51.2-88.7c5-8.6 14.6-12 23.2-10.3-5.7 1.2-11 4.6-14.2 10.3l-51.2 88.7L16 205.9a21.6 21.6 0 0 0 18.7 32.4h-9c-16.6 0-27-18-18.7-32.4z" fill="#fce06a"/><path d="M230.4 240.3H25.6c-8.5 0-16.1-4.5-20.4-11.8a23.4 23.4 0 0 1 0-23.6L107.6 27.5c4.2-7.3 11.9-11.8 20.4-11.8s16.2 4.5 20.4 11.8L250.8 205a23.4 23.4 0 0 1 0 23.6 23.4 23.4 0 0 1-20.4 11.8zM128 19.7c-7 0-13.4 3.7-17 9.8L8.7 207a19.4 19.4 0 0 0 0 19.6c3.5 6 9.8 9.8 17 9.8h204.7c7 0 13.4-3.7 17-9.8a19.4 19.4 0 0 0 0-19.6L145 29.5a19.4 19.4 0 0 0-17-9.8z" fill="#690589"/><path d="M230.4 228.3H25.6c-6 0-9-4.1-10-5.8-1-1.8-3-6.4 0-11.6L118 33.5c3-5.2 8-5.8 10-5.8s7 .6 10 5.8L240.4 211c3 5.2 1 9.8 0 11.6-1 1.7-4 5.8-10 5.8zM128 31.7c-1.3 0-4.6.4-6.6 3.8L19 213c-2 3.4-.6 6.4 0 7.6s2.7 3.8 6.6 3.8h204.8c4 0 5.9-2.7 6.5-3.8.7-1.2 2-4.2 0-7.6L134.7 35.5a7.5 7.5 0 0 0-6.6-3.8z" fill="#690589"/><path d="M92.4 99.6a2 2 0 0 1-1.7-3l5-8.7a2 2 0 0 1 3.4 2l-5 8.7c-.3.6-1 1-1.7 1z" fill="#690589"/><path d="M118.2 162.4v-73a10 10 0 0 1 9.9-10c5.4 0 9.7 4.6 9.7 10v73c0 5.6-4.3 10-9.7 10a10 10 0 0 1-10-10zm9.9 46.1a10 10 0 0 1-10-9.9V195a10 10 0 0 1 10-10c5.4 0 9.7 4.6 9.7 10v3.6c0 5.6-4.3 10-9.7 10z" fill="#f4efed"/><path d="M128 210.5a12 12 0 0 1-11.8-11.9V195c0-6.5 5.4-12 11.9-12s11.7 5.4 11.7 12v3.6c0 6.7-5.1 12-11.7 12zm0-23.4a8 8 0 0 0-7.8 7.9v3.6a8 8 0 0 0 7.9 8c4.3 0 7.7-3.5 7.7-8V195c0-4.4-3.4-8-7.7-8zm0-12.8a12 12 0 0 1-11.8-12v-73c0-6.4 5.4-11.8 11.9-11.8s11.7 5.3 11.7 11.9v73c0 6.7-5.1 12-11.7 12zm0-92.8a8 8 0 0 0-7.8 7.9v73a8 8 0 0 0 7.9 8c4.3 0 7.7-3.6 7.7-8v-73c0-4.4-3.4-8-7.7-8z" fill="#690589"/></svg>