<svg height="512" viewBox="0 0 128 128" width="512" xmlns="http://www.w3.org/2000/svg"><circle cx="66" cy="66" fill="#e6e7e8" r="52.53"/><circle cx="62" cy="62" fill="#fa759e" r="51.53"/><path d="M62 13.47c27.91 0 50.7 22.3 51.5 50.03l.03-1.5c0-28.41-23.12-51.53-51.53-51.53S10.47 33.59 10.47 62c0 .5.02 1 .04 1.5A51.58 51.58 0 0 1 62 13.47z" fill="#fff"/><g><path d="M41.42 48.05c0-2.6.84-5.25 2.51-7.92a19.32 19.32 0 0 1 7.33-6.65 23.05 23.05 0 0 1 11.23-2.63 24 24 0 0 1 10.54 2.2 17.1 17.1 0 0 1 7.06 5.99 14.69 14.69 0 0 1 2.49 8.23c0 2.33-.48 4.37-1.42 6.13a18.8 18.8 0 0 1-3.38 4.55c-1.3 1.27-3.64 3.42-7.01 6.44-.94.85-1.68 1.6-2.25 2.24a8.7 8.7 0 0 0-1.9 3.37c-.14.54-.37 1.48-.67 2.82-.52 2.86-2.15 4.28-4.9 4.28a5 5 0 0 1-3.6-1.4c-.97-.93-1.46-2.31-1.46-4.15 0-2.3.36-4.3 1.07-5.99a15.17 15.17 0 0 1 2.84-4.45 64.95 64.95 0 0 1 4.78-4.54 86.9 86.9 0 0 0 3.8-3.48c.78-.78 1.44-1.65 1.98-2.61.53-.96.8-2 .8-3.13 0-2.2-.82-4.05-2.45-5.56a8.95 8.95 0 0 0-6.32-2.26c-3.01 0-5.24.76-6.66 2.28-1.43 1.53-2.63 3.77-3.62 6.73-.94 3.1-2.7 4.65-5.31 4.65a5.22 5.22 0 0 1-3.9-1.62 4.96 4.96 0 0 1-1.58-3.52z" fill="#ffd7e5"/></g><g><path d="M61.22 80.49a6.19 6.19 0 1 0 0 12.38 6.19 6.19 0 0 0 0-12.38z" fill="#ffd7e5"/><g fill="#3a2c60"><path d="M92.27 102.44a50.14 50.14 0 0 1-3.86 2.62 1 1 0 1 0 1.05 1.7 52.77 52.77 0 0 0 4-2.72 1 1 0 0 0-1.2-1.6z"/><path d="M62 9.47C33.04 9.47 9.47 33.03 9.47 62S33.03 114.53 62 114.53c7.7 0 15.13-1.64 22.07-4.86a1 1 0 0 0-.85-1.82A49.98 49.98 0 0 1 62 112.53c-27.86 0-50.53-22.67-50.53-50.53S34.14 11.47 62 11.47 112.53 34.14 112.53 62a50.07 50.07 0 0 1-15.86 36.73 1 1 0 1 0 1.37 1.45A52.04 52.04 0 0 0 114.53 62 52.59 52.59 0 0 0 62 9.47z"/><path d="M71.43 65.13a249.2 249.2 0 0 0 7.05-6.47 19.87 19.87 0 0 0 3.56-4.79 13.77 13.77 0 0 0 1.54-6.6c0-3.15-.9-6.1-2.66-8.78a18.16 18.16 0 0 0-7.46-6.34 25.1 25.1 0 0 0-10.97-2.3c-4.43 0-8.37.93-11.71 2.75a20.39 20.39 0 0 0-7.7 7 15.91 15.91 0 0 0-2.66 8.45c0 1.53.63 2.94 1.87 4.22a6.2 6.2 0 0 0 4.6 1.92c2.13 0 4.94-.93 6.27-5.33.93-2.81 2.08-4.95 3.4-6.36 1.22-1.3 3.22-1.97 5.93-1.97 2.34 0 4.19.65 5.64 2a6.26 6.26 0 0 1 2.13 4.82 5.3 5.3 0 0 1-.68 2.64c-.48.87-1.09 1.68-1.8 2.4-.78.77-2.04 1.92-3.76 3.43a66.48 66.48 0 0 0-4.85 4.62 16.23 16.23 0 0 0-3.03 4.73A16.33 16.33 0 0 0 55 71.55c0 2.11.6 3.75 1.77 4.88a6 6 0 0 0 4.3 1.67c3.23 0 5.27-1.76 5.87-5.06.3-1.31.52-2.24.66-2.76.13-.47.32-.95.57-1.42a8.2 8.2 0 0 1 1.12-1.57c.54-.62 1.26-1.35 2.15-2.16zm-3.66.84a10 10 0 0 0-1.4 1.97c-.3.6-.54 1.2-.7 1.8-.16.55-.4 1.52-.7 2.9-.44 2.4-1.65 3.46-3.92 3.46a4 4 0 0 1-2.9-1.12c-.78-.74-1.16-1.86-1.16-3.43 0-2.16.34-4.05 1-5.6a14.27 14.27 0 0 1 2.65-4.16 64.83 64.83 0 0 1 4.7-4.47 86.7 86.7 0 0 0 3.85-3.52c.84-.85 1.56-1.8 2.14-2.84.62-1.1.93-2.32.93-3.61 0-2.47-.93-4.59-2.77-6.3a9.95 9.95 0 0 0-7-2.52c-3.29 0-5.78.88-7.4 2.6-1.51 1.62-2.8 4.01-3.84 7.13-1.07 3.53-3 3.93-4.36 3.93-1.26 0-2.3-.43-3.17-1.32a3.98 3.98 0 0 1-1.3-2.82c0-2.4.8-4.9 2.36-7.4a18.43 18.43 0 0 1 6.96-6.3 22.17 22.17 0 0 1 10.75-2.5c3.8 0 7.2.7 10.1 2.1a16.2 16.2 0 0 1 6.66 5.64 13.76 13.76 0 0 1 2.32 7.68c0 2.15-.43 4.06-1.3 5.66-.9 1.66-1.97 3.1-3.19 4.3-1.29 1.27-3.64 3.42-6.99 6.42-.95.86-1.73 1.65-2.32 2.32zM61.22 79.49a7.2 7.2 0 1 0 .01 14.4 7.2 7.2 0 0 0-.01-14.4zm0 12.38a5.2 5.2 0 1 1 .01-10.4 5.2 5.2 0 0 1-.01 10.4z"/></g></g></svg>